<svg width="187" height="45" viewBox="0 0 187 45" fill="none" xmlns="http://www.w3.org/2000/svg">
<g clip-path="url(#clip0)">
<path d="M2.17695 11.765C2.0681 11.9277 2.01368 12.1445 1.90483 12.3072C1.52386 13.1204 1.19732 13.9337 0.925204 14.8012C0.925204 14.8554 0.87078 14.9638 0.87078 15.018C0.816356 15.2349 0.707509 15.506 0.653085 15.7771C0.217695 17.4578 0 19.2469 0 21.0903C0 26.8373 2.34022 32.0421 6.09546 35.8373L8.32683 28.8975H1.79598L6.96624 12.7951H13.4971L15.021 8.07826C15.1298 7.64453 15.2931 7.21079 15.4563 6.83127C16.3271 4.3373 17.6333 2.1144 19.3204 0.162598C11.7555 0.8132 5.38795 5.36742 2.17695 11.765Z" fill="#21295B"/>
<path d="M40.5457 12.1987C40.4913 12.0903 40.4368 11.9819 40.3824 11.8734C39.6205 10.3554 38.7497 8.94572 37.6612 7.69873C37.5524 7.69873 37.3347 7.69873 37.0626 7.80716C36.6816 7.86138 36.3006 8.02403 35.9741 8.18668C35.7564 8.29512 35.5387 8.40355 35.321 8.5662C35.1577 8.67463 34.9945 8.83728 34.8856 8.94572C34.7768 9.05415 34.6679 9.16259 34.5591 9.32524C34.3414 9.59632 34.1237 9.86741 34.0148 10.1927L33.906 10.518C33.7427 10.8975 33.5795 11.3313 33.4706 11.7108C33.4706 11.765 33.4162 11.9819 33.3618 12.1987L33.1985 12.7951H40.8178C40.7634 12.5782 40.6545 12.3614 40.5457 12.1987Z" fill="#21295B"/>
<path d="M42.5594 20.9277C42.5594 20.6566 42.5594 20.3856 42.5594 20.1145C42.5594 19.9518 42.5594 19.7892 42.505 19.6807C42.505 19.5181 42.505 19.3554 42.4506 19.1928C42.4506 19.0301 42.3962 18.8675 42.3962 18.7048C42.3962 18.5422 42.3417 18.3795 42.3417 18.2711C42.3417 18.1085 42.2873 17.9458 42.2873 17.7832C42.2329 17.6205 42.2329 17.4036 42.1785 17.241C42.124 17.0783 42.124 16.8615 42.0696 16.6988C42.0152 16.4819 41.9608 16.2109 41.9063 15.994C41.9063 15.8856 41.8519 15.7771 41.7975 15.6687C41.7431 15.4518 41.6886 15.235 41.6342 15.0181C41.6342 14.9097 41.5798 14.8554 41.5798 14.747C41.5254 14.5301 41.4165 14.3133 41.3621 14.0422C41.3077 13.9338 41.3077 13.8253 41.2533 13.7711C41.1988 13.6627 41.1444 13.5542 41.1444 13.4458V13.5C41.0356 13.8795 40.5457 15.4518 40.5457 15.4518L36.2463 28.9518H28.0827L26.6677 33.1807L23.8376 42.0181C34.3414 40.7711 42.505 31.8795 42.505 21.1446C42.5594 21.0362 42.5594 20.9819 42.5594 20.9277Z" fill="#21295B"/>
<path d="M47.0765 36.2169L50.995 17.3495H47.6752L48.2739 14.476H51.5937L52.2468 11.3856C52.5733 9.86755 52.8999 8.729 53.2808 8.07839C53.6074 7.37358 54.206 6.83141 54.968 6.39767C55.7299 5.96394 56.8184 5.74707 58.179 5.74707C59.1042 5.74707 60.4648 5.96394 62.2608 6.34346L61.6077 9.59647C60.3559 9.27117 59.3219 9.10852 58.4511 9.10852C57.7436 9.10852 57.1994 9.27117 56.8184 9.65068C56.4374 10.0302 56.1109 10.8435 55.8388 12.1989L55.3489 14.5302H59.4852L58.8865 17.4037H54.7503L50.7774 36.2712H47.0765V36.2169Z" fill="#21295B"/>
<path d="M57.2538 36.217L61.8254 14.4761H65.5262L60.9546 36.217H57.2538ZM62.6962 10.4098L63.5669 6.23511H67.2678L66.397 10.4098H62.6962Z" fill="#21295B"/>
<path d="M65.9615 36.217L70.5331 14.476H73.9074L73.0911 18.2712C74.5605 16.8073 75.9211 15.723 77.1728 15.0182C78.4246 14.3133 79.7308 13.988 81.0914 13.988C82.8329 13.988 84.2479 14.476 85.2276 15.3977C86.2072 16.3736 86.7514 17.6206 86.7514 19.2471C86.7514 20.0603 86.5881 21.3073 86.2072 23.0423L83.4316 36.1627H79.7308L82.6152 22.3917C82.8873 21.0362 83.0506 20.0603 83.0506 19.4097C83.0506 18.7049 82.7785 18.1085 82.2887 17.6748C81.7989 17.241 81.0914 17.0242 80.1117 17.0242C78.2069 17.0242 76.5198 17.729 75.0503 19.0844C73.5809 20.4398 72.4924 22.7712 71.7849 26.0784L69.6624 36.217H65.9615Z" fill="#21295B"/>
<path d="M89.2006 27.976C89.2006 23.7471 90.4523 20.223 92.9558 17.4579C95.0239 15.1808 97.7451 14.0422 101.065 14.0422C103.677 14.0422 105.8 14.8555 107.433 16.482C109.065 18.1085 109.827 20.3314 109.827 23.0965C109.827 25.5904 109.337 27.9218 108.303 30.0362C107.269 32.2049 105.854 33.8314 104.004 34.9699C102.153 36.1085 100.194 36.7049 98.1261 36.7049C96.4389 36.7049 94.8606 36.3254 93.5 35.6205C92.085 34.9157 91.051 33.8856 90.3435 32.5302C89.5815 31.229 89.2006 29.7109 89.2006 27.976ZM92.9014 27.5965C92.9014 29.6567 93.3912 31.1748 94.3708 32.2591C95.3504 33.2892 96.6022 33.8314 98.1261 33.8314C98.9424 33.8314 99.7043 33.6687 100.466 33.3434C101.228 33.0181 101.99 32.5302 102.643 31.8796C103.296 31.229 103.895 30.4699 104.33 29.6567C104.82 28.8434 105.201 27.9218 105.473 26.9459C105.909 25.5904 106.126 24.2892 106.126 23.0422C106.126 21.0904 105.637 19.5724 104.657 18.488C103.677 17.4037 102.426 16.8615 100.902 16.8615C99.7588 16.8615 98.6703 17.1326 97.7451 17.6748C96.7655 18.2169 95.8947 19.0302 95.1328 20.1145C94.3708 21.1989 93.7722 22.3916 93.4456 23.8013C93.1191 25.2109 92.9014 26.5121 92.9014 27.5965Z" fill="#21295B"/>
<path d="M110.861 36.217L117.12 6.23511H120.821L114.562 36.217H110.861Z" fill="#21295B"/>
<path d="M120.331 27.976C120.331 23.7471 121.583 20.223 124.086 17.4579C126.154 15.1808 128.875 14.0422 132.195 14.0422C134.808 14.0422 136.93 14.8555 138.563 16.482C140.196 18.1085 140.958 20.3314 140.958 23.0965C140.958 25.5904 140.468 27.9218 139.434 30.0362C138.4 32.2049 136.985 33.8314 135.134 34.9699C133.284 36.1085 131.325 36.7049 129.256 36.7049C127.569 36.7049 125.991 36.3254 124.63 35.6205C123.215 34.9157 122.181 33.8856 121.474 32.5302C120.712 31.229 120.331 29.7109 120.331 27.976ZM124.032 27.5965C124.032 29.6567 124.522 31.1748 125.501 32.2591C126.481 33.2892 127.733 33.8314 129.256 33.8314C130.073 33.8314 130.835 33.6687 131.597 33.3434C132.359 33.0181 133.121 32.5302 133.774 31.8796C134.427 31.229 135.025 30.4699 135.461 29.6567C135.951 28.8434 136.332 27.9218 136.604 26.9459C137.039 25.5904 137.257 24.2892 137.257 23.0422C137.257 21.0904 136.767 19.5724 135.787 18.488C134.808 17.4037 133.556 16.8615 132.032 16.8615C130.889 16.8615 129.801 17.1326 128.875 17.6748C127.896 18.2169 127.079 19.0302 126.263 20.1145C125.501 21.1989 124.903 22.3916 124.576 23.8013C124.195 25.2109 124.032 26.5121 124.032 27.5965Z" fill="#21295B"/>
<path d="M142.046 38.1688L145.801 38.4941C145.801 39.3615 145.856 39.9579 146.128 40.3917C146.345 40.8254 146.726 41.1507 147.216 41.3676C147.869 41.6929 148.74 41.8013 149.829 41.8013C152.06 41.8013 153.693 41.2049 154.672 40.0664C155.325 39.3073 155.924 37.5724 156.468 34.97L156.849 33.235C154.944 35.1868 152.876 36.1627 150.699 36.1627C148.522 36.1627 146.672 35.3495 145.148 33.723C143.679 32.0965 142.917 29.8194 142.917 26.8917C142.917 24.4519 143.515 22.229 144.658 20.1688C145.801 18.1085 147.216 16.5904 148.849 15.5603C150.482 14.5302 152.114 13.988 153.856 13.988C156.74 13.988 158.917 15.3435 160.441 18.0543L161.203 14.476H164.632L160.223 35.4579C159.734 37.7892 159.135 39.5784 158.319 40.8254C157.557 42.1266 156.468 43.1025 155.053 43.8073C153.638 44.5121 152.06 44.8917 150.264 44.8917C148.522 44.8917 146.999 44.6748 145.747 44.2411C144.495 43.8073 143.515 43.1567 142.917 42.2892C142.318 41.4218 141.992 40.4459 141.992 39.3073C141.937 38.9278 141.992 38.5483 142.046 38.1688ZM146.672 26.6206C146.672 28.0844 146.835 29.223 147.107 29.982C147.543 31.0121 148.087 31.8254 148.849 32.3676C149.611 32.9097 150.427 33.1808 151.407 33.1808C152.604 33.1808 153.856 32.7471 155.053 31.8796C156.251 31.0121 157.23 29.7109 157.992 27.9218C158.754 26.1326 159.135 24.4519 159.135 22.8254C159.135 21.0362 158.645 19.6266 157.666 18.5423C156.686 17.5121 155.434 16.97 153.965 16.97C153.04 16.97 152.169 17.1868 151.352 17.6748C150.482 18.1627 149.72 18.9218 148.958 19.8977C148.25 20.8736 147.652 22.0664 147.271 23.4218C146.89 24.8314 146.672 25.8615 146.672 26.6206Z" fill="#21295B"/>
<path d="M163.435 44.5664L163.652 41.0966C164.414 41.3134 165.176 41.4219 165.884 41.4219C166.646 41.4219 167.244 41.2592 167.734 40.9339C168.333 40.5002 168.986 39.6327 169.693 38.3857L170.891 36.2713L167.244 14.4761H170.891L172.523 25.4821C172.85 27.6508 173.122 29.8194 173.34 31.9881L183.082 14.5303H186.946L173.068 39.1447C171.707 41.5303 170.51 43.1568 169.476 43.9158C168.442 44.6749 167.244 45.0544 165.884 45.0544C165.067 45.0002 164.251 44.8917 163.435 44.5664Z" fill="#21295B"/>
</g>
<defs>
<clipPath id="clip0">
<rect width="187" height="45" fill="white"/>
</clipPath>
</defs>
</svg>
